<svg xmlns="http://www.w3.org/2000/svg" width="24" height="24" viewBox="0 0 29 29"><g><g><path fill="#00587c" d="M4.834 21.226zm0 0c.295.034.59.05.96.05 1.811 0 3.519-.588 4.937-1.7a3.985 3.985 0 0 1-3.718-2.758c.28.042.519.061.751.061.34 0 .703-.046 1.047-.135a4 4 0 0 1-2.278-1.366 3.987 3.987 0 0 1-.911-2.537v-.05a4.02 4.02 0 0 0 1.797.505 3.974 3.974 0 0 1-1.773-3.313c0-.717.183-1.392.542-2.007a11.33 11.33 0 0 0 8.2 4.163 4.488 4.488 0 0 1-.098-.912 3.982 3.982 0 0 1 6.883-2.721c.88-.168 1.753-.5 2.524-.96a3.962 3.962 0 0 1-1.748 2.191 7.961 7.961 0 0 0 2.29-.615c-.55.8-1.22 1.491-1.995 2.056.013.173.013.348.013.517 0 2.747-1.063 5.528-2.915 7.63a10.706 10.706 0 0 1-3.547 2.658c-1.474.682-3.107 1.029-4.854 1.029-2.18 0-4.292-.618-6.107-1.785zm15.31 6.635a14.452 14.452 0 0 0 4.61-3.108A14.451 14.451 0 0 0 29 14.5a14.451 14.451 0 0 0-4.247-10.253A14.451 14.451 0 0 0 14.5 0 14.451 14.451 0 0 0 4.247 4.247 14.451 14.451 0 0 0 0 14.5a14.451 14.451 0 0 0 4.247 10.253A14.452 14.452 0 0 0 14.5 29a14.41 14.41 0 0 0 5.644-1.14z"/></g></g></svg>