<svg xmlns="http://www.w3.org/2000/svg" width="30" height="24" viewBox="0 0 36 27"><g><g><path fill="#00587c" d="M14.847 20.191V6.76l9.911 6.713zm20.616-14.02c0-3.075-2.263-5.55-5.059-5.55A247.612 247.612 0 0 0 18.811.375h-1.23c-3.937 0-7.806.068-11.593.246C3.198.621.936 3.11.936 6.185a100.15 100.15 0 0 0-.239 7.3C.69 15.92.765 18.353.93 20.794c0 3.076 2.262 5.57 5.051 5.57 3.978.185 8.06.267 12.208.26a238.23 238.23 0 0 0 12.209-.26c2.795 0 5.058-2.494 5.058-5.57.164-2.44.24-4.874.232-7.314.014-2.434-.061-4.867-.225-7.307z"/></g></g></svg>